<svg width="175" height="30" viewBox="0 0 175 30" fill="none" xmlns="http://www.w3.org/2000/svg">
<path d="M38.9476 24.33C36.6009 24.33 34.8592 23.7159 33.7226 22.4875C32.5859 21.2592 32.0176 19.3525 32.0176 16.7675C32.0176 14.1825 32.5859 12.2759 33.7226 11.0475C34.8776 9.81918 36.6192 9.20502 38.9476 9.20502C41.0742 9.20502 42.6601 9.80085 43.7051 10.9925C44.7684 12.1842 45.3001 14.045 45.3001 16.575V17.565H35.3726C35.4276 18.995 35.7301 20.0492 36.2801 20.7275C36.8484 21.3875 37.7467 21.7175 38.9751 21.7175C39.8917 21.7175 40.6342 21.4884 41.2026 21.03C41.7709 20.5534 42.0551 19.8567 42.0551 18.94H45.3001C45.3001 20.7184 44.7134 22.0659 43.5401 22.9825C42.3667 23.8809 40.8359 24.33 38.9476 24.33ZM41.8626 15.2275C41.8626 12.9542 40.8909 11.8175 38.9476 11.8175C37.8476 11.8175 37.0134 12.1017 36.4451 12.67C35.8951 13.22 35.5559 14.0725 35.4276 15.2275H41.8626Z" fill="#171C34"/>
<path d="M53.1833 24.33C50.91 24.33 49.2233 23.7159 48.1233 22.4875C47.0233 21.2592 46.4733 19.3525 46.4733 16.7675C46.4733 14.1825 47.0233 12.2759 48.1233 11.0475C49.2417 9.81918 50.9283 9.20502 53.1833 9.20502C55.145 9.20502 56.6575 9.69085 57.7208 10.6625C58.7842 11.6342 59.3158 13.0642 59.3158 14.9525H55.9608C55.9608 13.9259 55.7317 13.1559 55.2733 12.6425C54.815 12.1292 54.1 11.8725 53.1283 11.8725C51.9917 11.8725 51.1575 12.2667 50.6258 13.055C50.0942 13.825 49.8283 15.0167 49.8283 16.63V16.96C49.8283 18.5734 50.0942 19.765 50.6258 20.535C51.1758 21.2867 52.0558 21.6625 53.2658 21.6625C54.2008 21.6625 54.9067 21.3967 55.3833 20.865C55.8783 20.3334 56.1258 19.5725 56.1258 18.5825H59.3158C59.3158 20.3975 58.775 21.8092 57.6933 22.8175C56.63 23.8259 55.1267 24.33 53.1833 24.33Z" fill="#171C34"/>
<path d="M67.5413 24.33C65.158 24.33 63.3705 23.7159 62.1788 22.4875C61.0055 21.2592 60.4188 19.3525 60.4188 16.7675C60.4188 14.1825 61.0055 12.2759 62.1788 11.0475C63.3705 9.81918 65.158 9.20502 67.5413 9.20502C69.9247 9.20502 71.703 9.81918 72.8763 11.0475C74.068 12.2759 74.6638 14.1825 74.6638 16.7675C74.6638 19.3525 74.068 21.2592 72.8763 22.4875C71.703 23.7159 69.9247 24.33 67.5413 24.33ZM67.5413 21.635C68.843 21.635 69.7872 21.2592 70.3738 20.5075C70.9605 19.7375 71.2538 18.555 71.2538 16.96V16.575C71.2538 14.98 70.9605 13.8067 70.3738 13.055C69.7872 12.285 68.843 11.9 67.5413 11.9C66.2213 11.9 65.268 12.285 64.6813 13.055C64.113 13.8067 63.8288 14.98 63.8288 16.575V16.96C63.8288 18.555 64.113 19.7375 64.6813 20.5075C65.268 21.2592 66.2213 21.635 67.5413 21.635Z" fill="#171C34"/>
<path d="M76.7758 9.53502H79.4983L79.7733 11.46H79.9658C80.4424 10.7634 81.0291 10.2134 81.7258 9.81002C82.4408 9.40668 83.2566 9.20502 84.1733 9.20502C86.0249 9.20502 87.2808 9.95668 87.9408 11.46H88.1608C88.6374 10.7817 89.2516 10.2409 90.0033 9.83752C90.7549 9.41585 91.5891 9.20502 92.5058 9.20502C93.8808 9.20502 94.9624 9.59002 95.7508 10.36C96.5391 11.13 96.9333 12.3584 96.9333 14.045V24H93.6333V14.705C93.6333 12.945 92.8724 12.065 91.3508 12.065C90.5441 12.065 89.8658 12.395 89.3158 13.055C88.7841 13.715 88.5183 14.5584 88.5183 15.585V24H85.2183V14.705C85.2183 12.945 84.4574 12.065 82.9358 12.065C82.1291 12.065 81.4508 12.395 80.9008 13.055C80.3508 13.715 80.0758 14.5584 80.0758 15.585V24H76.7758V9.53502Z" fill="#171C34"/>
<path d="M99.879 9.53502H102.601L102.876 11.46H103.069C103.546 10.7634 104.132 10.2134 104.829 9.81002C105.544 9.40668 106.36 9.20502 107.276 9.20502C109.128 9.20502 110.384 9.95668 111.044 11.46H111.264C111.741 10.7817 112.355 10.2409 113.106 9.83752C113.858 9.41585 114.692 9.20502 115.609 9.20502C116.984 9.20502 118.066 9.59002 118.854 10.36C119.642 11.13 120.036 12.3584 120.036 14.045V24H116.736V14.705C116.736 12.945 115.976 12.065 114.454 12.065C113.647 12.065 112.969 12.395 112.419 13.055C111.887 13.715 111.621 14.5584 111.621 15.585V24H108.321V14.705C108.321 12.945 107.561 12.065 106.039 12.065C105.232 12.065 104.554 12.395 104.004 13.055C103.454 13.715 103.179 14.5584 103.179 15.585V24H99.879V9.53502Z" fill="#171C34"/>
<path d="M129.005 24.33C126.658 24.33 124.916 23.7159 123.78 22.4875C122.643 21.2592 122.075 19.3525 122.075 16.7675C122.075 14.1825 122.643 12.2759 123.78 11.0475C124.935 9.81918 126.676 9.20502 129.005 9.20502C131.131 9.20502 132.717 9.80085 133.762 10.9925C134.826 12.1842 135.357 14.045 135.357 16.575V17.565H125.43C125.485 18.995 125.787 20.0492 126.337 20.7275C126.906 21.3875 127.804 21.7175 129.032 21.7175C129.949 21.7175 130.691 21.4884 131.26 21.03C131.828 20.5534 132.112 19.8567 132.112 18.94H135.357C135.357 20.7184 134.771 22.0659 133.597 22.9825C132.424 23.8809 130.893 24.33 129.005 24.33ZM131.92 15.2275C131.92 12.9542 130.948 11.8175 129.005 11.8175C127.905 11.8175 127.071 12.1017 126.502 12.67C125.952 13.22 125.613 14.0725 125.485 15.2275H131.92Z" fill="#171C34"/>
<path d="M137.438 9.53502H140.16L140.463 11.8175H140.655C141.315 10.0759 142.397 9.20502 143.9 9.20502C144.414 9.20502 144.872 9.28752 145.275 9.45252V12.56H144.23C141.902 12.56 140.738 13.8617 140.738 16.465V24H137.438V9.53502Z" fill="#171C34"/>
<path d="M152.594 24.33C150.32 24.33 148.634 23.7159 147.534 22.4875C146.434 21.2592 145.884 19.3525 145.884 16.7675C145.884 14.1825 146.434 12.2759 147.534 11.0475C148.652 9.81918 150.339 9.20502 152.594 9.20502C154.555 9.20502 156.068 9.69085 157.131 10.6625C158.195 11.6342 158.726 13.0642 158.726 14.9525H155.371C155.371 13.9259 155.142 13.1559 154.684 12.6425C154.225 12.1292 153.51 11.8725 152.539 11.8725C151.402 11.8725 150.568 12.2667 150.036 13.055C149.505 13.825 149.239 15.0167 149.239 16.63V16.96C149.239 18.5734 149.505 19.765 150.036 20.535C150.586 21.2867 151.466 21.6625 152.676 21.6625C153.611 21.6625 154.317 21.3967 154.794 20.865C155.289 20.3334 155.536 19.5725 155.536 18.5825H158.726C158.726 20.3975 158.185 21.8092 157.104 22.8175C156.04 23.8259 154.537 24.33 152.594 24.33Z" fill="#171C34"/>
<path d="M166.759 24.33C164.413 24.33 162.671 23.7159 161.534 22.4875C160.398 21.2592 159.829 19.3525 159.829 16.7675C159.829 14.1825 160.398 12.2759 161.534 11.0475C162.689 9.81918 164.431 9.20502 166.759 9.20502C168.886 9.20502 170.472 9.80085 171.517 10.9925C172.58 12.1842 173.112 14.045 173.112 16.575V17.565H163.184C163.239 18.995 163.542 20.0492 164.092 20.7275C164.66 21.3875 165.558 21.7175 166.787 21.7175C167.703 21.7175 168.446 21.4884 169.014 21.03C169.583 20.5534 169.867 19.8567 169.867 18.94H173.112C173.112 20.7184 172.525 22.0659 171.352 22.9825C170.178 23.8809 168.648 24.33 166.759 24.33ZM169.674 15.2275C169.674 12.9542 168.703 11.8175 166.759 11.8175C165.659 11.8175 164.825 12.1017 164.257 12.67C163.707 13.22 163.368 14.0725 163.239 15.2275H169.674Z" fill="#171C34"/>
<path d="M23.5625 10.5H19.4375V9.9375C19.4364 8.51902 18.8816 7.157 17.8914 6.14141C16.9011 5.12582 15.5535 4.53689 14.1355 4.5H13.8645C12.4465 4.53689 11.0989 5.12582 10.1086 6.14141C9.11836 7.157 8.56361 8.51902 8.5625 9.9375V10.5H4.4375C4.38777 10.5 4.34008 10.5198 4.30492 10.5549C4.26975 10.5901 4.25 10.6378 4.25 10.6875V24.75C4.25 24.9489 4.32902 25.1397 4.46967 25.2803C4.61032 25.421 4.80109 25.5 5 25.5H23C23.1989 25.5 23.3897 25.421 23.5303 25.2803C23.671 25.1397 23.75 24.9489 23.75 24.75V10.6875C23.75 10.6378 23.7302 10.5901 23.6951 10.5549C23.6599 10.5198 23.6122 10.5 23.5625 10.5ZM10.4375 9.98438C10.4375 8.02312 12.0036 6.39562 13.9648 6.375C14.4355 6.37085 14.9023 6.45991 15.3384 6.63704C15.7744 6.81417 16.1711 7.07587 16.5056 7.40704C16.84 7.73821 17.1056 8.13231 17.287 8.56662C17.4684 9.00092 17.562 9.46683 17.5625 9.9375V10.5H10.4375V9.98438ZM19.25 14.25C19.25 15.6424 18.6969 16.9777 17.7123 17.9623C16.7277 18.9469 15.3924 19.5 14 19.5C12.6076 19.5 11.2723 18.9469 10.2877 17.9623C9.30312 16.9777 8.75 15.6424 8.75 14.25V12.75H10.25V14.25C10.25 15.2446 10.6451 16.1984 11.3483 16.9017C12.0516 17.6049 13.0054 18 14 18C14.9946 18 15.9484 17.6049 16.6517 16.9017C17.3549 16.1984 17.75 15.2446 17.75 14.25V12.75H19.25V14.25Z" fill="#1784FA"/>
</svg>
